<?xml version="1.0" encoding="utf-8"?>
<!-- Svg Vector Icons : http://www.onlinewebfonts.com/icon -->
<!DOCTYPE svg PUBLIC "-//W3C//DTD SVG 1.1//EN" "http://www.w3.org/Graphics/SVG/1.1/DTD/svg11.dtd">
<svg version="1.1" xmlns="http://www.w3.org/2000/svg" xmlns:xlink="http://www.w3.org/1999/xlink" x="0px" y="0px" viewBox="0 0 1000 1000" enable-background="new 0 0 1000 1000" xml:space="preserve">
<metadata> Svg Vector Icons : http://www.onlinewebfonts.com/icon </metadata>
<g><path d="M337.9,370c0,93.7,75.9,169.6,169.6,169.6c93.7,0,169.6-75.9,169.6-169.6s-75.9-169.6-169.6-169.6C413.9,200.3,337.9,276.3,337.9,370L337.9,370z"/><path d="M500,10C230.5,10,10,230.5,10,500c0,160.2,77.3,301.5,196,392l0,0c1.9,0,1.9,1.9,3.8,1.9c5.7,3.8,13.2,9.4,18.8,13.2c49,33.9,105.5,58.4,165.8,71.6c3.8,1.9,9.4,1.9,13.2,1.9c5.7,1.9,11.3,1.9,17,3.8c9.4,1.9,20.7,1.9,30.2,3.8c3.8,0,5.7,0,9.4,0c11.3,0,24.5,1.9,35.8,1.9c7.5,0,17,0,24.5,0c3.8,0,7.5,0,11.3,0c3.8,0,7.5,0,11.3,0c5.7,0,11.3-1.9,17-1.9c1.9,0,3.8,0,5.7,0c7.5-1.9,13.2-1.9,18.8-3.8h1.9C818.5,941,990,741.2,990,503.8C990,230.5,769.5,10,500,10z M822.3,841.1c-1.9-169.6-139.5-301.5-309.1-301.5c-171.5,0-311,139.5-311,311c0,3.8,0,9.4,0,13.2C96.7,777,28.8,645.1,28.8,498.1C28.8,238,239.9,27,500,27C760.1,27,971.2,238,971.2,498.1C971.2,633.8,914.6,756.3,822.3,841.1z"/></g>
</svg>